<?xml version="1.0" encoding="UTF-8"?>
<!DOCTYPE svg PUBLIC "-//W3C//DTD SVG 1.0//EN" "http://www.w3.org/TR/2001/REC-SVG-20010904/DTD/svg10.dtd">
<!-- Creator: CorelDRAW 2019 (64-Bit) -->
<svg xmlns="http://www.w3.org/2000/svg" xml:space="preserve" width="10.4167in" height="10.4167in" version="1.0" style="shape-rendering:geometricPrecision; text-rendering:geometricPrecision; image-rendering:optimizeQuality; fill-rule:evenodd; clip-rule:evenodd"
viewBox="0 0 10416.66 10416.66"
 xmlns:xlink="http://www.w3.org/1999/xlink"
 xmlns:xodm="http://www.corel.com/coreldraw/odm/2003">
 <defs>
  <style type="text/css">
   <![CDATA[
    .str0 {stroke:#FF9D5D;stroke-width:6.94;stroke-miterlimit:2.61313}
    .fil0 {fill:none}
    .fil2 {fill:url(#id0)}
    .fil1 {fill:url(#id1)}
   ]]>
  </style>
  <linearGradient id="id0" gradientUnits="userSpaceOnUse" x1="6638.26" y1="1911.18" x2="2981.65" y2="4809.5">
   <stop offset="0" style="stop-opacity:1; stop-color:#FF6600"/>
   <stop offset="1" style="stop-opacity:1; stop-color:#FF9D5D"/>
  </linearGradient>
  <linearGradient id="id1" gradientUnits="userSpaceOnUse" x1="2748.12" y1="2913.97" x2="6742" y2="8550.36">
   <stop offset="0" style="stop-opacity:1; stop-color:#0B56FA"/>
   <stop offset="1" style="stop-opacity:1; stop-color:#003399"/>
  </linearGradient>
 </defs>
 <g id="Layer_x0020_1">
  <metadata id="CorelCorpID_0Corel-Layer"/>
  <rect class="fil0" x="-0.01" y="-0" width="10416.67" height="10416.67"/>
  <g id="_2558319042272">
   <path class="fil1" d="M7736.41 6282.76l0 -1.11m-2643.1 -319.65c5.06,-0.07 10.17,-0.03 15.31,0.13m2636.17 -2010.74l-8.38 2330.26m0.23 136.53l0 1995.12c-576.49,336.57 -1247.15,529.41 -1962.86,529.41 -2153.24,0 -3898.79,-1745.54 -3898.79,-3898.79 0,-2153.25 1745.54,-3898.79 3898.79,-3898.79 671.3,0 1302.98,170.52 1854.52,470.45 22.41,12.19 44.7,24.6 66.85,37.21l-763.02 1321.59c-343.02,-192.82 -738.2,-302.94 -1158.35,-302.94 -1310.28,0 -2372.48,1062.19 -2372.48,2372.48 0,878.69 477.71,1645.77 1187.56,2055.79l0 -456.78c0,-3.9 0.04,-7.85 0.14,-11.84 0.09,-4 0.23,-8.03 0.42,-12.1 0.18,-4.08 0.43,-8.2 0.7,-12.36 0.28,-4.16 0.6,-8.35 0.98,-12.59 0.37,-4.23 0.78,-8.51 1.24,-12.81 0.46,-4.3 0.97,-8.65 1.52,-13.02 0.55,-4.37 1.15,-8.78 1.79,-13.21 0.64,-4.44 1.33,-8.9 2.06,-13.39 0.73,-4.49 1.51,-9.01 2.33,-13.55 0.82,-4.54 1.7,-9.11 2.61,-13.7 0.91,-4.59 1.87,-9.2 2.87,-13.84 1,-4.63 2.04,-9.28 3.13,-13.95 1.09,-4.67 2.22,-9.36 3.4,-14.06 1.18,-4.7 2.4,-9.41 3.67,-14.15 1.27,-4.73 2.58,-9.46 3.93,-14.22 1.35,-4.75 2.75,-9.51 4.19,-14.28 1.44,-4.77 2.92,-9.55 4.45,-14.33 1.53,-4.78 3.1,-9.57 4.71,-14.36 1.61,-4.79 3.27,-9.58 4.96,-14.37 1.7,-4.79 3.44,-9.59 5.22,-14.38 1.78,-4.79 3.61,-9.58 5.48,-14.36 1.87,-4.78 3.78,-9.56 5.73,-14.34 1.96,-4.77 3.95,-9.53 5.99,-14.29 2.04,-4.76 4.12,-9.5 6.24,-14.23 2.12,-4.73 4.29,-9.45 6.49,-14.16 2.2,-4.7 4.45,-9.4 6.74,-14.08 2.29,-4.67 4.61,-9.33 6.99,-13.97 2.37,-4.64 4.78,-9.26 7.23,-13.85 2.45,-4.6 4.95,-9.17 7.48,-13.72 2.54,-4.56 5.11,-9.08 7.72,-13.58 2.61,-4.5 5.27,-8.97 7.96,-13.41 2.7,-4.44 5.43,-8.86 8.21,-13.25 2.78,-4.38 5.59,-8.74 8.45,-13.05 2.85,-4.32 5.75,-8.6 8.69,-12.85 2.94,-4.25 5.92,-8.45 8.93,-12.63 3.01,-4.17 6.07,-8.31 9.17,-12.4 3.09,-4.09 6.23,-8.14 9.4,-12.14 3.17,-4 6.39,-7.96 9.63,-11.88 3.25,-3.91 6.55,-7.78 9.87,-11.6l0 -0.01c3.32,-3.81 6.69,-7.59 10.09,-11.3 3.41,-3.72 6.85,-7.39 10.33,-11 3.48,-3.61 7.01,-7.17 10.57,-10.68 3.56,-3.5 7.16,-6.94 10.79,-10.34l0 -0c3.63,-3.39 7.31,-6.72 11.02,-9.98 3.71,-3.27 7.46,-6.47 11.24,-9.62l0 -0c3.78,-3.15 7.61,-6.22 11.47,-9.24l0 -0c3.86,-3.01 7.76,-5.97 11.69,-8.84 3.93,-2.88 7.91,-5.69 11.91,-8.43 4.01,-2.74 8.05,-5.41 12.14,-8l0 -0.01c4.07,-2.59 8.2,-5.12 12.35,-7.56l0 -0.01c4.16,-2.45 8.36,-4.81 12.58,-7.1l0 -0.01c4.23,-2.29 8.49,-4.5 12.79,-6.64 4.3,-2.14 8.64,-4.19 13.01,-6.16l0 -0c4.37,-1.97 8.78,-3.85 13.23,-5.65 4.44,-1.8 8.93,-3.52 13.44,-5.14l0 -0.01c4.52,-1.63 9.07,-3.16 13.65,-4.61l0 -0.01c4.59,-1.45 9.2,-2.8 13.86,-4.06l0 -0.01c4.65,-1.27 9.35,-2.43 14.07,-3.51l0 -0.01c4.72,-1.08 9.48,-2.05 14.28,-2.93l0 -0.01c4.8,-0.88 9.62,-1.66 14.49,-2.35l0 -0c4.86,-0.69 9.77,-1.27 14.7,-1.75l0 -0c4.93,-0.48 9.9,-0.85 14.9,-1.13l0 -0c5,-0.28 10.04,-0.44 15.11,-0.5 5.06,-0.06 10.17,-0.03 15.31,0.13l0 0.01 0 1359.59c96.06,28.01 194.64,50.11 295.31,65.91l0 -1613.84c0,-4.09 0.04,-8.23 0.12,-12.41 0.08,-4.18 0.2,-8.4 0.35,-12.67 0.16,-4.27 0.35,-8.57 0.58,-12.92 0.23,-4.34 0.5,-8.73 0.81,-13.15 0.31,-4.42 0.66,-8.87 1.05,-13.36 0.39,-4.49 0.81,-9.01 1.28,-13.56 0.46,-4.56 0.97,-9.14 1.52,-13.75 0.54,-4.61 1.12,-9.25 1.74,-13.92 0.62,-4.67 1.28,-9.36 1.99,-14.07 0.7,-4.72 1.44,-9.46 2.22,-14.22 0.78,-4.76 1.59,-9.54 2.45,-14.34 0.85,-4.8 1.75,-9.62 2.69,-14.46 0.93,-4.83 1.91,-9.68 2.93,-14.55 1.01,-4.87 2.08,-9.74 3.17,-14.64 1.1,-4.89 2.22,-9.8 3.4,-14.7 1.18,-4.91 2.39,-9.83 3.65,-14.75l0 -0.01c1.26,-4.93 2.55,-9.85 3.88,-14.79l0 -0.01c1.33,-4.93 2.71,-9.87 4.12,-14.81 1.41,-4.94 2.85,-9.89 4.35,-14.83 1.49,-4.94 3.03,-9.88 4.6,-14.82 1.57,-4.94 3.18,-9.87 4.83,-14.8 1.65,-4.93 3.35,-9.85 5.09,-14.76 1.73,-4.91 3.51,-9.83 5.32,-14.72 1.81,-4.89 3.67,-9.78 5.56,-14.64l0 -0.01c1.89,-4.87 3.83,-9.73 5.8,-14.57 1.97,-4.84 3.99,-9.67 6.04,-14.47 2.06,-4.81 4.16,-9.59 6.3,-14.36 2.13,-4.77 4.31,-9.52 6.53,-14.24 2.22,-4.72 4.48,-9.43 6.78,-14.1 2.3,-4.67 4.65,-9.32 7.02,-13.94 2.38,-4.62 4.8,-9.21 7.26,-13.78l0 -0c2.46,-4.56 4.97,-9.1 7.52,-13.59 2.54,-4.5 5.13,-8.96 7.76,-13.39 2.63,-4.43 5.29,-8.83 8,-13.18l0 -0.01c2.7,-4.36 5.46,-8.67 8.25,-12.95 2.79,-4.28 5.63,-8.52 8.49,-12.72 2.88,-4.19 5.79,-8.35 8.74,-12.45 2.95,-4.11 5.95,-8.17 8.99,-12.18l0 -0.01c3.04,-4.01 6.12,-7.98 9.24,-11.89 3.12,-3.92 6.29,-7.78 9.49,-11.59l0 -0.01c3.2,-3.81 6.45,-7.57 9.74,-11.28 3.29,-3.7 6.61,-7.35 9.98,-10.95 3.37,-3.59 6.78,-7.13 10.23,-10.6 3.46,-3.48 6.95,-6.89 10.49,-10.24 3.54,-3.35 7.12,-6.64 10.74,-9.87 3.62,-3.22 7.28,-6.38 10.99,-9.47 3.7,-3.09 7.45,-6.12 11.24,-9.07l0 -0.01c3.79,-2.95 7.63,-5.83 11.5,-8.65l0 -0c3.87,-2.81 7.79,-5.55 11.74,-8.22 3.96,-2.67 7.96,-5.24 12,-7.76l0 -0.01c4.04,-2.51 8.12,-4.95 12.25,-7.3l0 -0.01c4.12,-2.35 8.29,-4.63 12.5,-6.82 4.21,-2.19 8.46,-4.3 12.76,-6.33 4.29,-2.03 8.63,-3.96 13.02,-5.82 4.38,-1.85 8.8,-3.62 13.27,-5.3 4.46,-1.68 8.97,-3.27 13.52,-4.76 4.55,-1.5 9.15,-2.9 13.78,-4.21 4.64,-1.31 9.32,-2.52 14.04,-3.64l0 -0.01c4.72,-1.12 9.49,-2.14 14.29,-3.06 4.81,-0.92 9.66,-1.74 14.55,-2.46 4.9,-0.72 9.83,-1.34 14.81,-1.85 4.98,-0.52 10,-0.92 15.06,-1.23 5.06,-0.3 10.17,-0.5 15.33,-0.58 5.15,-0.09 10.34,-0.07 15.59,0.07l0 2341.62c100.51,-5.59 201.3,-17.91 301.45,-36.63l0 -2019.68 0 -0.01c0,-4.3 0.03,-8.65 0.1,-13.04l0 -0.01c0.07,-4.39 0.18,-8.82 0.33,-13.3l0 -0.01c0.15,-4.48 0.33,-9 0.54,-13.56 0.22,-4.56 0.47,-9.16 0.76,-13.8l0 -0.01c0.29,-4.63 0.61,-9.3 0.98,-14.02 0.37,-4.71 0.77,-9.45 1.2,-14.22 0.44,-4.78 0.91,-9.58 1.43,-14.42l0 -0c0.51,-4.84 1.06,-9.7 1.65,-14.59 0.59,-4.89 1.21,-9.8 1.87,-14.75l0 -0.01c0.66,-4.94 1.36,-9.91 2.09,-14.89l0 -0.01c0.74,-4.98 1.52,-10 2.33,-15.02 0.81,-5.03 1.67,-10.08 2.56,-15.15 0.89,-5.07 1.81,-10.15 2.78,-15.24 0.96,-5.09 1.97,-10.2 3.02,-15.32 1.05,-5.12 2.12,-10.25 3.24,-15.4 1.12,-5.14 2.29,-10.28 3.48,-15.44 1.2,-5.15 2.44,-10.31 3.71,-15.48l0 -0c1.28,-5.17 2.59,-10.33 3.95,-15.5 1.35,-5.17 2.75,-10.34 4.18,-15.51l0 -0.01c1.44,-5.17 2.91,-10.34 4.43,-15.5 1.52,-5.16 3.07,-10.32 4.67,-15.47 1.59,-5.16 3.23,-10.3 4.9,-15.44l0 -0c1.67,-5.14 3.39,-10.26 5.15,-15.38l0 -0c1.76,-5.12 3.55,-10.22 5.39,-15.31l0 -0c1.84,-5.09 3.72,-10.16 5.63,-15.22l0 -0.01c1.92,-5.06 3.87,-10.1 5.87,-15.12 2,-5.03 4.04,-10.02 6.12,-15l0 -0.01c2.09,-4.98 4.21,-9.94 6.37,-14.87 2.16,-4.93 4.38,-9.84 6.63,-14.72l0 -0.01c2.25,-4.88 4.53,-9.74 6.87,-14.56l0 -0c2.33,-4.83 4.7,-9.62 7.12,-14.39 2.42,-4.76 4.87,-9.49 7.37,-14.19 2.5,-4.7 5.05,-9.35 7.63,-13.98l0 -0.01c2.58,-4.62 5.21,-9.2 7.88,-13.76l0 -0c2.67,-4.55 5.38,-9.04 8.14,-13.52 2.76,-4.46 5.56,-8.89 8.4,-13.26l0 -0.01c2.84,-4.38 5.72,-8.71 8.65,-12.99 2.93,-4.29 5.91,-8.53 8.92,-12.7l0 -0.01c3.01,-4.19 6.08,-8.32 9.17,-12.4 3.11,-4.09 6.24,-8.12 9.44,-12.09 3.19,-3.97 6.43,-7.89 9.7,-11.76 3.28,-3.86 6.6,-7.67 9.96,-11.41 3.37,-3.74 6.78,-7.43 10.23,-11.04l0 -0.01c3.46,-3.62 6.96,-7.17 10.5,-10.66l0 -0c3.54,-3.49 7.13,-6.92 10.77,-10.27l0 -0.01c3.63,-3.36 7.32,-6.65 11.04,-9.86l0 -0.01c3.72,-3.22 7.5,-6.36 11.31,-9.43l0 -0.01c3.82,-3.07 7.67,-6.07 11.58,-9 3.91,-2.93 7.85,-5.78 11.85,-8.54l0 -0c4,-2.77 8.04,-5.46 12.13,-8.07 4.09,-2.61 8.22,-5.14 12.4,-7.59 4.19,-2.44 8.41,-4.81 12.68,-7.08 4.28,-2.28 8.59,-4.47 12.96,-6.57l0 -0.01c4.36,-2.11 8.78,-4.11 13.24,-6.03 4.46,-1.92 8.97,-3.75 13.52,-5.49 4.55,-1.74 9.15,-3.37 13.8,-4.92l0 -0.01c4.65,-1.55 9.34,-2.99 14.08,-4.35 4.74,-1.35 9.53,-2.6 14.36,-3.75 4.83,-1.15 9.72,-2.2 14.66,-3.15 4.93,-0.94 9.91,-1.78 14.94,-2.52l0 -0c5.03,-0.73 10.1,-1.36 15.23,-1.88 5.12,-0.52 10.29,-0.93 15.51,-1.22 5.22,-0.3 10.49,-0.48 15.81,-0.56 5.31,-0.07 10.68,-0.03 16.09,0.14l0 2607.17c85,-34.86 168.26,-74.3 249.09,-118.09l0 -2174.44c0,0 -133.51,-994.11 803.7,-986.13l-8.38 2330.26 0 0 0 1.11 -0.49 136.42 0.73 -1zm-0.24 -136.53l0 0 0 1.11 0 -1.11 0 -0z"/>
   <path class="fil2 str0" d="M7628.31 1615.57c-551.54,-299.93 -1183.22,-470.45 -1854.52,-470.45 -781.81,0 -1509.89,230.12 -2120.17,626.32 -480.47,609.22 -767.19,1378.36 -767.19,2214.47 0,938.5 361.24,1792.64 952.26,2430.94 -275.43,-387.51 -437.38,-861.31 -437.38,-1372.94 0,-1310.29 1062.19,-2372.48 2372.48,-2372.48 420.15,0 815.33,110.12 1158.35,302.94l763.02 -1321.59c-22.15,-12.61 -44.43,-25.02 -66.85,-37.21z"/>
  </g>
 </g>
</svg>
